<?xml version="1.0" encoding="iso-8859-1"?>
<!-- Generator: Adobe Illustrator 28.4.1, SVG Export Plug-In . SVG Version: 6.00 Build 0)  -->
<svg version="1.1" id="Layer_1" xmlns="http://www.w3.org/2000/svg" xmlns:xlink="http://www.w3.org/1999/xlink" x="0px" y="0px"
	 width="792px" height="1080px" viewBox="0 0 792 1080" enable-background="new 0 0 792 1080" xml:space="preserve">
<g>
	<defs>
		<rect id="SVGID_1_" x="167.51" y="311.149" width="457.8" height="457.8"/>
	</defs>
	<clipPath id="SVGID_00000040575530468345913660000008372431684159495314_">
		<use xlink:href="#SVGID_1_"  overflow="visible"/>
	</clipPath>
	<path clip-path="url(#SVGID_00000040575530468345913660000008372431684159495314_)" fill="#41190E" d="M167.51,540.049
		c0-126.418,102.482-228.9,228.9-228.9s228.9,102.482,228.9,228.9s-102.482,228.9-228.9,228.9S167.51,666.467,167.51,540.049"/>
	<path clip-path="url(#SVGID_00000040575530468345913660000008372431684159495314_)" fill="#F9F3DB" d="M464.939,492.346
		c0-38.969-30.538-70.56-68.208-70.56s-68.208,31.591-68.208,70.56l-38.367,0.105c0-60.889,47.715-110.25,106.575-110.25
		s106.575,49.361,106.575,110.25"/>
	
		<path clip-path="url(#SVGID_00000040575530468345913660000008372431684159495314_)" fill="none" stroke="#FFFFFF" stroke-width="2.1" stroke-miterlimit="10" d="
		M464.939,492.346c0-38.969-30.538-70.56-68.208-70.56s-68.208,31.591-68.208,70.56l-38.367,0.105
		c0-60.889,47.715-110.25,106.575-110.25s106.575,49.361,106.575,110.25"/>
</g>
<line fill="none" stroke="#FFFFFF" stroke-width="2.1" stroke-miterlimit="10" x1="243.956" y1="492.451" x2="549.506" y2="492.451"/>
<polyline fill="#FDCA95" points="464.456,493.501 432.956,667.801 361.556,667.801 328.51,492.45 290.01,492.45 331.106,701.401 
	459.206,701.401 503.306,493.501 "/>
<polyline fill="none" stroke="#FFFFFF" stroke-width="2.1" stroke-miterlimit="10" points="464.456,493.501 432.956,667.801 
	361.556,667.801 328.51,492.45 290.01,492.45 331.106,701.401 459.206,701.401 503.306,493.501 "/>
<polygon fill="#D25727" points="432.956,668.149 464.456,492.449 329.006,492.449 361.556,668.149 "/>
<polygon fill="none" stroke="#FFFFFF" stroke-width="2.1" stroke-miterlimit="10" points="432.956,668.149 464.456,492.449 
	329.006,492.449 361.556,668.149 "/>
<g>
	<path fill="#FFFFFF" d="M295.639,384.745l-1.004-1.715c1.113-0.425,2.185-0.922,3.249-1.545c1.426-0.834,1.799-1.637,0.822-3.305
		l-8.174-13.967l5.945-3.479l7.426,12.687c2.531,4.326,0.259,6.986-3.342,9.093C298.411,383.772,296.892,384.336,295.639,384.745z"
		/>
</g>
<g>
	<path fill="#FFFFFF" d="M304.295,368.024c-2.675-5.857-1.25-11.096,5.321-14.097c6.597-3.013,11.463-0.648,14.138,5.209
		c2.676,5.858,1.276,11.084-5.32,14.097C311.862,376.235,306.971,373.882,304.295,368.024z M317.311,362.08
		c-2.967-6.494-4.201-7.378-6.799-6.191s-2.738,2.698,0.228,9.192c2.966,6.495,4.201,7.378,6.799,6.191
		S320.276,368.574,317.311,362.08z"/>
</g>
<g>
	<path fill="#FFFFFF" d="M339.685,354.815l-6.037,1.895l2.85,9.083l-6.571,2.062l-6.187-19.716l6.571-2.062l2.7,8.603l6.037-1.895
		l-2.699-8.603l6.572-2.062l6.187,19.717l-6.572,2.062L339.685,354.815z"/>
</g>
<g>
	<path fill="#FFFFFF" d="M351.851,348.75l2.262,12.053l-2.506,0.47l-3.811-20.31l4.129-0.774l13.286,9.017l-2.086-11.119l2.504-0.47
		l3.812,20.31l-3.743,0.702L351.851,348.75z"/>
</g>
<g>
</g>
<g>
	<path fill="#FFFFFF" d="M382.941,336.081l5.987-0.247l8.545,20.329l-7.134,0.294l-2.089-5.125l-7.777,0.321l-1.604,5.278
		l-2.462,0.102L382.941,336.081z M381.141,349.495l6.238-0.257l-3.522-8.626L381.141,349.495z"/>
</g>
<g>
	<path fill="#FFFFFF" d="M407.146,349.137l-1.34-0.093l-0.536,7.682l-6.62-0.462l1.438-20.614l9.665,0.674
		c4.665,0.325,8.667,2.093,8.318,7.092c-0.178,2.542-1.788,4.311-4.181,5.21l3.754,8.963l-7.318-0.51L407.146,349.137z
		 M408.338,346.947c1.815,0.127,2.782-0.845,3.002-4.001c0.243-3.491-0.592-4.392-2.407-4.519l-2.374-0.165l-0.595,8.52
		L408.338,346.947z"/>
</g>
<g>
	<path fill="#FFFFFF" d="M420.78,337.223l17.988,3.112l-0.367,2.125l-5.602-0.969l-3.156,18.236l-6.759-1.17l3.156-18.236
		l-5.629-0.974L420.78,337.223z"/>
</g>
<g>
	<path fill="#FFFFFF" d="M451.842,355.485l-6.075-1.769l-2.659,9.141l-6.614-1.924l5.772-19.842l6.614,1.925l-2.519,8.657
		l6.075,1.769l2.519-8.658l6.614,1.924l-5.772,19.842l-6.614-1.924L451.842,355.485z"/>
</g>
<g>
	<path fill="#FFFFFF" d="M461.301,359.961l4.908-11.544l6.493,2.761l-5.018,11.802c-1.414,3.324-1.117,5.275,1.897,6.558
		c3.117,1.325,4.702,0.175,6.116-3.149l5.018-11.803l2.422,1.03l-4.919,11.569c-2.411,5.67-5.775,6.643-11.548,4.188
		C460.925,368.929,458.901,365.604,461.301,359.961z"/>
</g>
<g>
	<path fill="#FFFFFF" d="M488.033,372.979l-1.17-0.661l-3.793,6.701l-5.775-3.269l10.179-17.983l8.431,4.772
		c4.07,2.303,6.921,5.622,4.452,9.983c-1.255,2.218-3.471,3.119-6.017,2.901l-0.475,9.704l-6.385-3.613L488.033,372.979z
		 M490.051,371.518c1.584,0.896,2.875,0.436,4.434-2.317c1.724-3.047,1.357-4.219-0.227-5.115l-2.07-1.172l-4.207,7.432
		L490.051,371.518z"/>
</g>
<g>
</g>
<g>
	<path fill="#FFFFFF" d="M355.256,731.836c1.317-7.898,6.404-9.635,12.949-8.543c1.795,0.3,3.72,0.849,5.432,1.475l-0.327,1.962
		c-1.482-0.476-2.849-0.788-4.036-0.986c-3.591-0.599-5.851,0.188-7.021,7.203c-1.179,7.07,0.703,8.548,4.294,9.147
		c1.188,0.197,2.609,0.35,4.138,0.378l-0.327,1.96c-1.745,0.078-3.821-0.069-5.616-0.369
		C358.224,742.976,353.943,739.707,355.256,731.836z"/>
</g>
<g>
	<path fill="#FFFFFF" d="M381.395,725.112l5.976,0.439l6.163,21.174l-7.121-0.524l-1.489-5.331l-7.763-0.571l-2.197,5.06
		l-2.457-0.181L381.395,725.112z M378.072,738.232l6.227,0.458l-2.513-8.973L378.072,738.232z"/>
</g>
<g>
	<path fill="#FFFFFF" d="M395.938,726.001l16.149-0.457l0.062,2.155l-9.265,0.263l0.201,7.137l8.062-0.229l0.061,2.127l-8.062,0.229
		l0.262,9.236l-6.886,0.194L395.938,726.001z"/>
</g>
<g>
	<path fill="#FFFFFF" d="M413.21,725.42l15.984-2.148l0.287,2.138l-9.158,1.23l0.914,6.798l7.992-1.074l0.284,2.11l-7.992,1.074
		l0.981,7.297l9.157-1.23l0.287,2.138l-15.984,2.148L413.21,725.42z"/>
</g>
<g>
</g>
<g>
</g>
<g>
</g>
<g>
</g>
<g>
</g>
<g>
</g>
</svg>
