<?xml version="1.0" encoding="UTF-8"?>
<svg id="Layer_2" data-name="Layer 2" xmlns="http://www.w3.org/2000/svg" viewBox="0 0 53.31 53.33">
  <defs>
    <style>
      .cls-1 {
        fill: #fbfbf3;
        stroke-width: 0px;
      }
    </style>
  </defs>
  <g id="Layer_1-2" data-name="Layer 1">
    <g id="SVGRepo_iconCarrier" data-name="SVGRepo iconCarrier">
      <path class="cls-1" d="M37.84,0H15.49C5.79,0,0,5.79,0,15.49v22.32c0,9.73,5.79,15.52,15.49,15.52h22.32c9.71,0,15.49-5.79,15.49-15.49V15.49c.03-9.71-5.76-15.49-15.47-15.49ZM26.67,37.01c-5.71,0-10.35-4.64-10.35-10.35s4.64-10.35,10.35-10.35,10.35,4.64,10.35,10.35-4.64,10.35-10.35,10.35ZM42.45,13.01c-.13.32-.32.61-.56.88-.27.24-.56.43-.88.56-.32.13-.67.21-1.01.21-.72,0-1.39-.27-1.89-.77-.24-.27-.43-.56-.56-.88s-.21-.67-.21-1.01.08-.69.21-1.01c.13-.35.32-.61.56-.88.61-.61,1.55-.91,2.4-.72.19.03.35.08.51.16.16.05.32.13.48.24.13.08.27.21.4.32.24.27.43.53.56.88.13.32.21.67.21,1.01s-.08.69-.21,1.01Z"/>
    </g>
  </g>
</svg>