<?xml version="1.0" encoding="UTF-8"?>
<svg id="Layer_2" data-name="Layer 2" xmlns="http://www.w3.org/2000/svg" viewBox="0 0 64 51.2">
  <defs>
    <style>
      .cls-1 {
        fill: #fbfbf3;
        fill-rule: evenodd;
        stroke-width: 0px;
      }
    </style>
  </defs>
  <g id="Layer_1-2" data-name="Layer 1">
    <g id="SVGRepo_iconCarrier" data-name="SVGRepo iconCarrier">
      <g id="Page-1">
        <g id="Dribbble-Light-Preview">
          <g id="icons">
            <path id="twitter-_fbfbf3_" data-name="twitter-[#fbfbf3]" class="cls-1" d="M20.13,51.2c24.15,0,37.36-19.7,37.36-36.78,0-.56,0-1.12-.04-1.67,2.57-1.83,4.79-4.1,6.55-6.69-2.39,1.05-4.94,1.73-7.54,2.03,2.74-1.62,4.79-4.15,5.77-7.15-2.58,1.51-5.4,2.57-8.34,3.14-4.97-5.2-13.29-5.46-18.58-.56-3.41,3.16-4.86,7.86-3.8,12.35-10.56-.52-20.39-5.43-27.06-13.51-3.48,5.91-1.7,13.46,4.07,17.25-2.09-.06-4.13-.61-5.96-1.62v.16c0,6.15,4.41,11.45,10.53,12.67-1.93.52-3.96.6-5.93.22,1.72,5.27,6.65,8.88,12.27,8.98-4.65,3.6-10.39,5.55-16.31,5.55-1.04,0-2.09-.06-3.13-.19,6.01,3.79,12.99,5.81,20.13,5.8"/>
          </g>
        </g>
      </g>
    </g>
  </g>
</svg>