<?xml version="1.0" encoding="UTF-8"?>
<svg id="Layer_2" data-name="Layer 2" xmlns="http://www.w3.org/2000/svg" viewBox="0 0 64 44.8">
  <defs>
    <style>
      .cls-1 {
        fill: #fbfbf3;
        fill-rule: evenodd;
        stroke-width: 0px;
      }
    </style>
  </defs>
  <g id="Layer_1-2" data-name="Layer 1">
    <g id="SVGRepo_iconCarrier" data-name="SVGRepo iconCarrier">
      <g id="Page-1">
        <g id="Dribbble-Light-Preview">
          <g id="icons">
            <path id="youtube-_fbfbf3_" data-name="youtube-[#fbfbf3]" class="cls-1" d="M25.56,30.67V12.72c6.38,3,11.31,5.9,17.15,9.02-4.82,2.67-10.78,5.67-17.15,8.94M61.09,3.79c-1.1-1.45-2.97-2.58-4.97-2.95C50.26-.28,13.67-.28,7.81.84c-1.6.3-3.03,1.03-4.25,2.15C-1.6,7.77.01,33.44,1.26,37.6c.52,1.8,1.2,3.1,2.05,3.95,1.1,1.13,2.6,1.9,4.32,2.25,4.83,1,29.71,1.56,48.39.15,1.72-.3,3.24-1.1,4.45-2.28,4.77-4.77,4.44-31.88.62-37.89"/>
          </g>
        </g>
      </g>
    </g>
  </g>
</svg>