<?xml version="1.0" encoding="UTF-8"?>
<svg id="Layer_2" data-name="Layer 2" xmlns="http://www.w3.org/2000/svg" viewBox="0 0 157.68 135.43">
  <defs>
    <style>
      .cls-1 {
        fill: #c2e0da;
        stroke-width: 0px;
      }

      .cls-2 {
        fill: none;
        stroke: #c2e0da;
        stroke-miterlimit: 10;
      }
    </style>
  </defs>
  <g id="Shapes">
    <g>
      <line class="cls-2" x1="43.71" y1="45.68" x2="29.09" y2="37.24"/>
      <line class="cls-2" x1="100.13" y1="50.08" x2="119.09" y2="43.18"/>
      <polyline class="cls-2" points="134.96 80.37 146.93 64.13 134.96 47.9"/>
      <line class="cls-2" x1="100.13" y1="80.52" x2="119.09" y2="87.42"/>
      <line class="cls-2" x1="72.23" y1="12.81" x2="72.23" y2="32.98"/>
      <line class="cls-2" x1="76.7" y1="12.81" x2="76.7" y2="32.98"/>
      <line class="cls-2" x1="75.19" y1="100.26" x2="75.19" y2="116.86"/>
      <line class="cls-2" x1="131.44" y1="79.02" x2="142.3" y2="63.62"/>
      <line class="cls-2" x1="127.45" y1="37.24" x2="134.96" y2="21.15"/>
      <line class="cls-2" x1="104.68" y1="51.88" x2="104.68" y2="78.18"/>
      <g>
        <line class="cls-2" x1="30.01" y1="94.47" x2="47.47" y2="84.39"/>
        <line class="cls-2" x1="27.77" y1="90.6" x2="45.24" y2="80.52"/>
      </g>
      <polyline class="cls-2" points="66.48 90.99 49.02 81.37 49.02 59.79"/>
      <polyline class="cls-2" points="56.83 45.19 74.57 35.6 100.13 49.71 100.13 80.47 82.86 90.6"/>
      <path class="cls-1" d="M75.2,10.02c-.75,0-1.44-.13-2.08-.38s-1.19-.6-1.66-1.06c-.47-.45-.83-.98-1.09-1.59-.26-.61-.39-1.27-.39-1.99s.13-1.38.39-1.99c.26-.61.62-1.14,1.09-1.59s1.02-.81,1.65-1.06c.63-.25,1.33-.38,2.09-.38s1.44.12,2.07.37c.63.25,1.19.6,1.65,1.05.47.45.83.98,1.08,1.6.26.61.38,1.28.38,2s-.13,1.4-.38,2c-.26.61-.62,1.14-1.08,1.59-.47.45-1.02.8-1.65,1.05-.63.25-1.33.37-2.07.37ZM75.19,8.78c.55,0,1.06-.09,1.52-.28.46-.19.86-.45,1.2-.79s.61-.74.8-1.2c.19-.46.29-.96.29-1.5s-.1-1.04-.29-1.49c-.19-.45-.46-.85-.8-1.2-.34-.35-.74-.61-1.2-.8-.46-.19-.97-.28-1.52-.28s-1.04.09-1.5.28c-.46.19-.87.45-1.21.8-.35.35-.61.74-.81,1.2-.19.45-.29.95-.29,1.49s.1,1.04.29,1.5c.19.46.46.86.81,1.2.35.34.75.6,1.21.79.46.19.96.28,1.5.28Z"/>
      <path class="cls-1" d="M22.14,101.49c-.75,0-1.44-.13-2.08-.38s-1.19-.6-1.66-1.06c-.47-.45-.83-.98-1.09-1.59-.26-.61-.39-1.27-.39-1.99s.13-1.38.39-1.99c.26-.61.62-1.14,1.09-1.59s1.02-.81,1.65-1.06c.63-.25,1.33-.38,2.09-.38s1.44.12,2.07.37c.63.25,1.19.6,1.65,1.05.47.45.83.98,1.08,1.6.26.61.38,1.28.38,2s-.13,1.4-.38,2c-.26.61-.62,1.14-1.08,1.59-.47.45-1.02.8-1.65,1.05-.63.25-1.33.37-2.07.37ZM22.12,100.25c.55,0,1.06-.09,1.52-.28.46-.19.86-.45,1.2-.79s.61-.74.8-1.2c.19-.46.29-.96.29-1.5s-.1-1.04-.29-1.49c-.19-.45-.46-.85-.8-1.2-.34-.35-.74-.61-1.2-.8-.46-.19-.97-.28-1.52-.28s-1.04.09-1.5.28c-.46.19-.87.45-1.21.8-.35.35-.61.74-.81,1.2-.19.45-.29.95-.29,1.49s.1,1.04.29,1.5c.19.46.46.86.81,1.2.35.34.75.6,1.21.79.46.19.96.28,1.5.28Z"/>
      <g>
        <path class="cls-1" d="M1.4,38.18H0v-9.8h1.4v9.8ZM7.15,33.81H1.26v-1.22h5.89v1.22ZM7.03,28.38h1.4v9.8h-1.4v-9.8Z"/>
        <path class="cls-1" d="M12.04,42.92c-.4,0-.79-.06-1.17-.17-.38-.11-.71-.28-.97-.49l.45-.82c.21.17.46.3.76.41.3.1.61.15.92.15.38,0,.67-.08.89-.23.22-.16.33-.37.33-.63s-.1-.47-.3-.62-.52-.23-.95-.23h-.52v-.73l1.63-1.94.15.41h-3.07v-.9h3.88v.71l-1.63,1.93-.55-.32h.33c.7,0,1.22.16,1.57.47s.53.71.53,1.2c0,.32-.08.62-.24.89-.16.27-.41.49-.75.66-.33.16-.76.24-1.28.24Z"/>
        <path class="cls-1" d="M20.5,38.29c-.75,0-1.44-.12-2.06-.37-.63-.25-1.18-.6-1.64-1.05-.46-.45-.82-.98-1.08-1.59-.26-.61-.39-1.27-.39-2s.13-1.4.39-2c.26-.61.62-1.14,1.09-1.59.47-.45,1.02-.8,1.65-1.05.63-.25,1.32-.37,2.07-.37s1.45.13,2.09.39,1.18.64,1.63,1.14l-.91.88c-.37-.39-.79-.68-1.26-.88s-.97-.29-1.5-.29-1.06.09-1.53.28c-.47.19-.88.45-1.23.78-.35.34-.61.73-.81,1.2-.19.46-.29.96-.29,1.5s.1,1.04.29,1.5.46.86.81,1.2c.35.34.75.6,1.23.78.47.19.98.28,1.53.28s1.03-.1,1.5-.29.89-.49,1.26-.89l.91.88c-.45.5-.99.89-1.63,1.15s-1.34.39-2.11.39Z"/>
      </g>
      <g>
        <path class="cls-1" d="M137.63,18.12c-.75,0-1.44-.12-2.06-.37-.63-.25-1.18-.6-1.64-1.05-.46-.45-.82-.98-1.08-1.59-.26-.61-.39-1.27-.39-2s.13-1.4.39-2c.26-.61.62-1.14,1.09-1.59.47-.45,1.02-.8,1.65-1.05.63-.25,1.32-.37,2.07-.37s1.45.13,2.09.39,1.18.64,1.63,1.14l-.91.88c-.37-.39-.79-.68-1.26-.88s-.97-.29-1.5-.29-1.06.09-1.53.28c-.47.19-.88.45-1.23.78-.35.34-.61.73-.81,1.2-.19.46-.29.96-.29,1.5s.1,1.04.29,1.5.46.86.81,1.2c.35.34.75.6,1.23.78.47.19.98.28,1.53.28s1.03-.1,1.5-.29.89-.49,1.26-.89l.91.88c-.45.5-.99.89-1.63,1.15s-1.34.39-2.11.39Z"/>
        <path class="cls-1" d="M144.77,18.01h-1.4v-9.8h1.4v9.8ZM150.52,13.64h-5.89v-1.22h5.89v1.22ZM150.4,8.21h1.4v9.8h-1.4v-9.8Z"/>
        <path class="cls-1" d="M155.42,22.75c-.4,0-.79-.06-1.17-.17-.38-.11-.71-.28-.97-.49l.45-.82c.21.17.46.3.76.41.3.1.61.15.92.15.38,0,.67-.08.89-.23.22-.16.33-.37.33-.63s-.1-.47-.3-.62-.52-.23-.95-.23h-.52v-.73l1.63-1.94.15.41h-3.07v-.9h3.88v.71l-1.63,1.93-.55-.32h.33c.7,0,1.22.16,1.57.47s.53.71.53,1.2c0,.32-.08.62-.24.89-.16.27-.41.49-.75.66-.33.16-.76.24-1.28.24Z"/>
      </g>
      <g>
        <path class="cls-1" d="M75.41,130.8c-.75,0-1.44-.12-2.06-.37-.63-.25-1.18-.6-1.64-1.05s-.82-.98-1.08-1.59-.39-1.27-.39-2,.13-1.4.39-2c.26-.61.62-1.14,1.09-1.59.47-.45,1.02-.8,1.65-1.05.63-.25,1.32-.37,2.07-.37s1.45.13,2.09.39,1.18.64,1.63,1.14l-.91.88c-.37-.39-.79-.68-1.26-.88s-.97-.29-1.5-.29-1.06.09-1.53.28c-.47.19-.88.45-1.23.78-.35.34-.61.73-.81,1.2-.19.46-.29.96-.29,1.5s.1,1.04.29,1.5.46.86.81,1.2c.35.34.75.6,1.23.78.47.19.98.28,1.53.28s1.03-.1,1.5-.29.89-.49,1.26-.89l.91.88c-.45.5-.99.89-1.63,1.15s-1.34.39-2.11.39Z"/>
        <path class="cls-1" d="M82.55,130.69h-1.4v-9.8h1.4v9.8ZM88.3,126.32h-5.89v-1.22h5.89v1.22ZM88.18,120.89h1.4v9.8h-1.4v-9.8Z"/>
        <path class="cls-1" d="M93.19,135.43c-.4,0-.79-.06-1.17-.17-.38-.11-.71-.28-.97-.49l.45-.82c.21.17.46.3.76.41.3.1.61.16.92.16.38,0,.67-.08.89-.23.22-.16.33-.37.33-.63s-.1-.47-.3-.62-.52-.23-.95-.23h-.52v-.73l1.63-1.94.15.41h-3.07v-.9h3.88v.71l-1.63,1.93-.55-.32h.33c.7,0,1.22.16,1.57.47.35.31.53.71.53,1.21,0,.32-.08.62-.24.89-.16.28-.41.49-.75.66-.33.16-.76.24-1.28.24Z"/>
      </g>
      <path class="cls-1" d="M46.41,57.07v-9.8h1.15l6.48,8.05h-.6v-8.05h1.4v9.8h-1.15l-6.48-8.05h.6v8.05h-1.4Z"/>
      <path class="cls-1" d="M69.59,96.19v-9.8h1.15l6.48,8.05h-.6v-8.05h1.4v9.8h-1.15l-6.48-8.05h.6v8.05h-1.4Z"/>
      <path class="cls-1" d="M123.24,92.61v-9.8h1.15l6.48,8.05h-.6v-8.05h1.4v9.8h-1.15l-6.48-8.05h.6v8.05h-1.4Z"/>
      <path class="cls-1" d="M123.24,50.88v-9.8h1.15l6.48,8.05h-.6v-8.05h1.4v9.8h-1.15l-6.48-8.05h.6v8.05h-1.4Z"/>
    </g>
  </g>
</svg>