<?xml version="1.0" encoding="UTF-8"?>
<svg id="Layer_2" data-name="Layer 2" xmlns="http://www.w3.org/2000/svg" viewBox="0 0 216.84 104.95">
  <defs>
    <style>
      .cls-1 {
        fill: #82af69;
      }

      .cls-1, .cls-2 {
        stroke-width: 0px;
      }

      .cls-2 {
        fill: #e47826;
      }
    </style>
  </defs>
  <g id="Text">
    <g>
      <g>
        <path class="cls-2" d="M0,35.69V11.94L20.41,0l20.65,11.94v23.74l-20.79,11.41L0,35.69ZM1.69,34.82l18.57,10.11,18.86-10.11V13.25L20.36,2.37,1.69,13.25v21.57ZM26.84,15.28v6.87h2.08v9.62H11.9V15.28h14.94ZM13.93,22.19h10.83v-4.35h-10.83v4.35ZM13.93,29.25h12.86v-4.5h-12.86v4.5Z"/>
        <path class="cls-2" d="M59.53,59.19l-20.26-11.41v-23.74l20.41-11.94,20.65,11.94v23.74l-20.79,11.41ZM40.96,25.34v21.57l18.57,10.11,18.86-10.11v-21.57l-18.76-10.88-18.67,10.88ZM68.14,43.86h-16.97v-16.49h2.03v13.97h12.86v-13.97h2.08v16.49Z"/>
        <path class="cls-2" d="M98.8,59.19l-20.26-11.41v-23.74l20.41-11.94,20.65,11.94v23.74l-20.79,11.41ZM80.23,25.34v21.57l18.57,10.11,18.86-10.11v-21.57l-18.76-10.88-18.67,10.88ZM90.39,41.1l13.44-11.12h-13.39v-2.61h16.97v2.9l-13.44,11.07h13.44v2.51h-17.02v-2.76Z"/>
        <path class="cls-2" d="M138.07,59.19l-20.26-11.41v-23.74l20.41-11.94,20.65,11.94v23.74l-20.79,11.41ZM119.5,25.34v21.57l18.57,10.11,18.86-10.11v-21.57l-18.76-10.88-18.67,10.88ZM129.66,41.1l13.44-11.12h-13.39v-2.61h16.97v2.9l-13.44,11.07h13.44v2.51h-17.02v-2.76Z"/>
      </g>
      <g>
        <path class="cls-1" d="M18.7,81.16v-23.74l20.41-11.94,20.42,11.54.23,24.15-20.79,11.41-20.26-11.41ZM20.4,80.29l18.57,10.11,18.86-10.11v-21.57l-18.76-10.88-18.67,10.88v21.57ZM54.34,78.01l-15.33,8.95-15.09-8.51v-18.52l15.04-8.66,15.38,8.66v18.08ZM47.62,77.24v-9.62h-2.08v-6.87h-14.94v16.49h17.02ZM43.46,67.67h-10.83v-4.35h10.83v4.35ZM45.49,74.73h-12.86v-4.5h12.86v4.5Z"/>
        <path class="cls-1" d="M57.97,93.54v-23.74l20.41-11.94,20.65,11.94v23.74l-20.79,11.41-20.26-11.41ZM59.67,92.67l18.57,10.11,18.86-10.11v-21.57l-18.76-10.88-18.67,10.88v21.57ZM93.61,90.39l-15.33,8.95-15.09-8.51v-18.52l15.04-8.66,15.38,8.66v18.08ZM79.35,87.1v-11.41h7.06v-2.56h-16.1v2.56h7.01v11.41h-7.01v2.51h16.1v-2.51h-7.06Z"/>
        <path class="cls-1" d="M97.24,69.79l20.41-11.94,20.65,11.94v23.74l-20.79,11.41-20.26-11.41v-23.74ZM117.5,102.77l18.86-10.11v-21.57l-18.76-10.88-18.67,10.88v21.57l18.57,10.11ZM132.88,90.39l-15.33,8.95-15.09-8.51v-18.52l15.04-8.66,15.38,8.66v18.08ZM126.11,73.13h-16.97v2.56h7.45v13.93h2.03v-13.93h7.5v-2.56Z"/>
        <path class="cls-1" d="M156.77,104.95l-20.26-11.41v-23.74l20.41-11.94,20.65,11.94v23.74l-20.79,11.41ZM138.21,71.1v21.57l18.57,10.11,18.86-10.11v-21.57l-18.76-10.88-18.67,10.88ZM172.15,90.39l-15.33,8.95-15.09-8.51v-18.52l15.04-8.66,15.38,8.66v18.08ZM150.44,80.09v-4.4h14.94v-2.56h-16.97v16.49h16.97v-2.51h-14.94v-4.4h14.94v-2.61h-14.94Z"/>
        <path class="cls-1" d="M175.78,69.79l20.41-11.94,20.65,11.94v23.74l-20.79,11.41-20.26-11.41v-23.74ZM196.04,102.77l18.86-10.11v-21.57l-18.76-10.88-18.67,10.88v21.57l18.57,10.11ZM211.42,90.39l-15.33,8.95-15.09-8.51v-18.52l15.04-8.66,15.38,8.66v18.08ZM204.65,80.04h-14.89v-4.35h14.89v-2.56h-16.97v9.57h14.84v4.4h-14.84v2.51h16.97v-9.57Z"/>
      </g>
    </g>
  </g>
</svg>